<mxfile host="www.draw.io" modified="2020-02-17T19:12:26.415Z" agent="Mozilla/5.0 (Macintosh; Intel Mac OS X 10_15_3) AppleWebKit/605.1.15 (KHTML, like Gecko) Version/13.0.5 Safari/605.1.15" etag="KJN7JXrT0_JvOPEVpF3E" version="12.7.0" type="github">
  <diagram id="OgD3OtjzdBlAJdrimNEG" name="Page-1">
    <mxGraphModel dx="788" dy="495" grid="1" gridSize="10" guides="1" tooltips="1" connect="1" arrows="1" fold="1" page="1" pageScale="1" pageWidth="827" pageHeight="1169" math="0" shadow="0">
      <root>
        <mxCell id="0"/>
        <mxCell id="1" parent="0"/>
        <mxCell id="CPRBnCA5laABlLX16hOq-6" value="Controller&#xa;" style="swimlane;fontStyle=1;align=center;verticalAlign=top;childLayout=stackLayout;horizontal=1;startSize=26;horizontalStack=0;resizeParent=1;resizeParentMax=0;resizeLast=0;collapsible=1;marginBottom=0;" parent="1" vertex="1">
          <mxGeometry x="81.41000000000001" y="848" width="160" height="100" as="geometry">
            <mxRectangle x="340" y="630" width="90" height="26" as="alternateBounds"/>
          </mxGeometry>
        </mxCell>
        <mxCell id="CPRBnCA5laABlLX16hOq-8" value="" style="line;strokeWidth=1;fillColor=none;align=left;verticalAlign=middle;spacingTop=-1;spacingLeft=3;spacingRight=3;rotatable=0;labelPosition=right;points=[];portConstraint=eastwest;" parent="CPRBnCA5laABlLX16hOq-6" vertex="1">
          <mxGeometry y="26" width="160" height="24" as="geometry"/>
        </mxCell>
        <mxCell id="CPRBnCA5laABlLX16hOq-9" value="+ Controller()&#xa;+ run(): void" style="text;strokeColor=none;fillColor=none;align=left;verticalAlign=top;spacingLeft=4;spacingRight=4;overflow=hidden;rotatable=0;points=[[0,0.5],[1,0.5]];portConstraint=eastwest;" parent="CPRBnCA5laABlLX16hOq-6" vertex="1">
          <mxGeometry y="50" width="160" height="50" as="geometry"/>
        </mxCell>
        <mxCell id="CPRBnCA5laABlLX16hOq-10" value="-modelo" style="endArrow=block;endFill=1;html=1;edgeStyle=orthogonalEdgeStyle;align=left;verticalAlign=top;exitX=1.002;exitY=0.203;exitDx=0;exitDy=0;exitPerimeter=0;" parent="1" edge="1" source="CPRBnCA5laABlLX16hOq-9">
          <mxGeometry x="-0.1428" y="10" relative="1" as="geometry">
            <mxPoint x="243.66" y="918" as="sourcePoint"/>
            <mxPoint x="450.66" y="1093" as="targetPoint"/>
            <Array as="points">
              <mxPoint x="260.66" y="908"/>
              <mxPoint x="260.66" y="1088"/>
              <mxPoint x="430.66" y="1088"/>
              <mxPoint x="430.66" y="1093"/>
            </Array>
            <mxPoint as="offset"/>
          </mxGeometry>
        </mxCell>
        <mxCell id="CPRBnCA5laABlLX16hOq-11" value="" style="resizable=0;html=1;align=left;verticalAlign=bottom;labelBackgroundColor=#ffffff;fontSize=10;" parent="CPRBnCA5laABlLX16hOq-10" connectable="0" vertex="1">
          <mxGeometry x="-1" relative="1" as="geometry">
            <mxPoint x="-239.25" as="offset"/>
          </mxGeometry>
        </mxCell>
        <mxCell id="CPRBnCA5laABlLX16hOq-12" value="" style="endArrow=block;endFill=1;html=1;edgeStyle=orthogonalEdgeStyle;align=left;verticalAlign=top;exitX=0.424;exitY=-0.047;exitDx=0;exitDy=0;exitPerimeter=0;" parent="1" source="CPRBnCA5laABlLX16hOq-6" edge="1">
          <mxGeometry x="-1" relative="1" as="geometry">
            <mxPoint x="310.66" y="881" as="sourcePoint"/>
            <mxPoint x="150.66" y="778" as="targetPoint"/>
            <Array as="points">
              <mxPoint x="151.09" y="843"/>
            </Array>
          </mxGeometry>
        </mxCell>
        <mxCell id="CPRBnCA5laABlLX16hOq-13" value="" style="resizable=0;html=1;align=left;verticalAlign=bottom;labelBackgroundColor=#ffffff;fontSize=10;" parent="CPRBnCA5laABlLX16hOq-12" connectable="0" vertex="1">
          <mxGeometry x="-1" relative="1" as="geometry">
            <mxPoint x="-239.25" as="offset"/>
          </mxGeometry>
        </mxCell>
        <mxCell id="CPRBnCA5laABlLX16hOq-15" value="-view" style="text;html=1;align=center;verticalAlign=middle;resizable=0;points=[];labelBackgroundColor=#ffffff;" parent="CPRBnCA5laABlLX16hOq-12" vertex="1" connectable="0">
          <mxGeometry x="-0.8741" y="1" relative="1" as="geometry">
            <mxPoint x="24.75" y="-10.99" as="offset"/>
          </mxGeometry>
        </mxCell>
        <mxCell id="CPRBnCA5laABlLX16hOq-25" value="Main" style="swimlane;fontStyle=1;align=center;verticalAlign=top;childLayout=stackLayout;horizontal=1;startSize=26;horizontalStack=0;resizeParent=1;resizeParentMax=0;resizeLast=0;collapsible=1;marginBottom=0;" parent="1" vertex="1">
          <mxGeometry x="80.66000000000001" y="1018" width="160" height="80" as="geometry">
            <mxRectangle x="340" y="630" width="90" height="26" as="alternateBounds"/>
          </mxGeometry>
        </mxCell>
        <mxCell id="CPRBnCA5laABlLX16hOq-26" value="" style="line;strokeWidth=1;fillColor=none;align=left;verticalAlign=middle;spacingTop=-1;spacingLeft=3;spacingRight=3;rotatable=0;labelPosition=right;points=[];portConstraint=eastwest;" parent="CPRBnCA5laABlLX16hOq-25" vertex="1">
          <mxGeometry y="26" width="160" height="24" as="geometry"/>
        </mxCell>
        <mxCell id="CPRBnCA5laABlLX16hOq-27" value="+ Main(String[]): void" style="text;strokeColor=none;fillColor=none;align=left;verticalAlign=top;spacingLeft=4;spacingRight=4;overflow=hidden;rotatable=0;points=[[0,0.5],[1,0.5]];portConstraint=eastwest;fontStyle=4" parent="CPRBnCA5laABlLX16hOq-25" vertex="1">
          <mxGeometry y="50" width="160" height="30" as="geometry"/>
        </mxCell>
        <mxCell id="CPRBnCA5laABlLX16hOq-28" value="" style="resizable=0;html=1;align=left;verticalAlign=bottom;labelBackgroundColor=#ffffff;fontSize=10;" parent="1" connectable="0" vertex="1">
          <mxGeometry x="240.66" y="1057.9999999999998" as="geometry"/>
        </mxCell>
        <mxCell id="CPRBnCA5laABlLX16hOq-29" value="" style="resizable=0;html=1;align=left;verticalAlign=bottom;labelBackgroundColor=#ffffff;fontSize=10;" parent="1" connectable="0" vertex="1">
          <mxGeometry x="80.66000000000001" y="1057.9999999999998" as="geometry"/>
        </mxCell>
        <mxCell id="CPRBnCA5laABlLX16hOq-30" value="controler" style="text;html=1;align=center;verticalAlign=middle;resizable=0;points=[];labelBackgroundColor=#ffffff;" parent="1" vertex="1" connectable="0">
          <mxGeometry x="180.6561040790581" y="1018.0030769724051" as="geometry">
            <mxPoint x="1.8200000000000003" y="-13.99" as="offset"/>
          </mxGeometry>
        </mxCell>
        <mxCell id="CPRBnCA5laABlLX16hOq-42" value="View" style="swimlane;fontStyle=1;align=center;verticalAlign=top;childLayout=stackLayout;horizontal=1;startSize=26;horizontalStack=0;resizeParent=1;resizeParentMax=0;resizeLast=0;collapsible=1;marginBottom=0;" parent="1" vertex="1">
          <mxGeometry x="80.66000000000001" y="648" width="160" height="130" as="geometry">
            <mxRectangle x="340" y="630" width="90" height="26" as="alternateBounds"/>
          </mxGeometry>
        </mxCell>
        <mxCell id="CPRBnCA5laABlLX16hOq-43" value="" style="line;strokeWidth=1;fillColor=none;align=left;verticalAlign=middle;spacingTop=-1;spacingLeft=3;spacingRight=3;rotatable=0;labelPosition=right;points=[];portConstraint=eastwest;" parent="CPRBnCA5laABlLX16hOq-42" vertex="1">
          <mxGeometry y="26" width="160" height="24" as="geometry"/>
        </mxCell>
        <mxCell id="CPRBnCA5laABlLX16hOq-44" value="+ View()&#xa;+ printMenu(): void&#xa;+ printMessage(String): void&#xa;+ printModelo(Modelo): void" style="text;strokeColor=none;fillColor=none;align=left;verticalAlign=top;spacingLeft=4;spacingRight=4;overflow=hidden;rotatable=0;points=[[0,0.5],[1,0.5]];portConstraint=eastwest;fontStyle=0" parent="CPRBnCA5laABlLX16hOq-42" vertex="1">
          <mxGeometry y="50" width="160" height="80" as="geometry"/>
        </mxCell>
        <mxCell id="CPRBnCA5laABlLX16hOq-45" value="" style="resizable=0;html=1;align=left;verticalAlign=bottom;labelBackgroundColor=#ffffff;fontSize=10;" parent="1" connectable="0" vertex="1">
          <mxGeometry x="240.66" y="747.9999999999998" as="geometry"/>
        </mxCell>
        <mxCell id="CPRBnCA5laABlLX16hOq-46" value="" style="resizable=0;html=1;align=left;verticalAlign=bottom;labelBackgroundColor=#ffffff;fontSize=10;" parent="1" connectable="0" vertex="1">
          <mxGeometry x="80.66000000000001" y="747.9999999999998" as="geometry"/>
        </mxCell>
        <mxCell id="CPRBnCA5laABlLX16hOq-48" value="" style="resizable=0;html=1;align=left;verticalAlign=bottom;labelBackgroundColor=#ffffff;fontSize=10;" parent="1" connectable="0" vertex="1">
          <mxGeometry x="150.66" y="708" as="geometry"/>
        </mxCell>
        <mxCell id="CPRBnCA5laABlLX16hOq-49" value="Modelo" style="swimlane;fontStyle=1;align=center;verticalAlign=top;childLayout=stackLayout;horizontal=1;startSize=26;horizontalStack=0;resizeParent=1;resizeParentMax=0;resizeLast=0;collapsible=1;marginBottom=0;" parent="1" vertex="1">
          <mxGeometry x="450.66" y="940" width="290" height="170" as="geometry"/>
        </mxCell>
        <mxCell id="CPRBnCA5laABlLX16hOq-50" value="+ field: type" style="text;strokeColor=none;fillColor=none;align=left;verticalAlign=top;spacingLeft=4;spacingRight=4;overflow=hidden;rotatable=0;points=[[0,0.5],[1,0.5]];portConstraint=eastwest;" parent="CPRBnCA5laABlLX16hOq-49" vertex="1">
          <mxGeometry y="26" width="290" height="26" as="geometry"/>
        </mxCell>
        <mxCell id="CPRBnCA5laABlLX16hOq-51" value="" style="line;strokeWidth=1;fillColor=none;align=left;verticalAlign=middle;spacingTop=-1;spacingLeft=3;spacingRight=3;rotatable=0;labelPosition=right;points=[];portConstraint=eastwest;" parent="CPRBnCA5laABlLX16hOq-49" vertex="1">
          <mxGeometry y="52" width="290" height="8" as="geometry"/>
        </mxCell>
        <mxCell id="CPRBnCA5laABlLX16hOq-52" value="+ Modelo()&#xa;+ darTamanoComparendos(): int&#xa;+ darObjectidMayor(): String&#xa;+ darZonaMiniMax(): double[]&#xa;+ darComparendosZonaMiniMax(double, double, &#xa;      double, double): LinkedList&lt;Comparendo&gt;" style="text;strokeColor=none;fillColor=none;align=left;verticalAlign=top;spacingLeft=4;spacingRight=4;overflow=hidden;rotatable=0;points=[[0,0.5],[1,0.5]];portConstraint=eastwest;" parent="CPRBnCA5laABlLX16hOq-49" vertex="1">
          <mxGeometry y="60" width="290" height="110" as="geometry"/>
        </mxCell>
        <mxCell id="CPRBnCA5laABlLX16hOq-53" value="- datos1 (list)" style="text;html=1;align=center;verticalAlign=middle;resizable=0;points=[];autosize=1;" parent="1" vertex="1">
          <mxGeometry x="470.66" y="908" width="80" height="20" as="geometry"/>
        </mxCell>
        <mxCell id="CPRBnCA5laABlLX16hOq-54" value="- datos2 (queue)" style="text;html=1;align=center;verticalAlign=middle;resizable=0;points=[];autosize=1;" parent="1" vertex="1">
          <mxGeometry x="588.6600000000001" y="908" width="100" height="20" as="geometry"/>
        </mxCell>
        <mxCell id="CPRBnCA5laABlLX16hOq-55" value="Use" style="endArrow=open;endSize=12;dashed=1;html=1;exitX=-0.002;exitY=0.353;exitDx=0;exitDy=0;exitPerimeter=0;entryX=0;entryY=0;entryDx=100;entryDy=32;entryPerimeter=0;" parent="1" source="CPRBnCA5laABlLX16hOq-52" target="CPRBnCA5laABlLX16hOq-56" edge="1">
          <mxGeometry width="160" relative="1" as="geometry">
            <mxPoint x="378.23" y="488" as="sourcePoint"/>
            <mxPoint x="248.23" y="548" as="targetPoint"/>
            <Array as="points">
              <mxPoint x="290.66" y="1038"/>
              <mxPoint x="290.66" y="868"/>
              <mxPoint x="290.66" y="610"/>
            </Array>
          </mxGeometry>
        </mxCell>
        <mxCell id="CPRBnCA5laABlLX16hOq-56" value="Infracciones" style="shape=folder;fontStyle=1;spacingTop=10;tabWidth=40;tabHeight=14;tabPosition=left;html=1;" parent="1" vertex="1">
          <mxGeometry x="110.66000000000001" y="578" width="100" height="50" as="geometry"/>
        </mxCell>
        <mxCell id="CPRBnCA5laABlLX16hOq-57" value="" style="endArrow=open;endFill=1;endSize=12;html=1;exitX=-0.005;exitY=-0.018;exitDx=0;exitDy=0;exitPerimeter=0;" parent="1" source="CPRBnCA5laABlLX16hOq-52" edge="1">
          <mxGeometry width="160" relative="1" as="geometry">
            <mxPoint x="368.23" y="548" as="sourcePoint"/>
            <mxPoint x="212.23" y="528" as="targetPoint"/>
            <Array as="points">
              <mxPoint x="330.66" y="998"/>
              <mxPoint x="330.66" y="568"/>
              <mxPoint x="210.66" y="568"/>
            </Array>
          </mxGeometry>
        </mxCell>
        <mxCell id="CPRBnCA5laABlLX16hOq-58" value="Comparendo&#xa;" style="swimlane;fontStyle=1;align=center;verticalAlign=top;childLayout=stackLayout;horizontal=1;startSize=26;horizontalStack=0;resizeParent=1;resizeParentMax=0;resizeLast=0;collapsible=1;marginBottom=0;" parent="1" vertex="1">
          <mxGeometry x="80.66000000000001" y="58" width="270" height="470" as="geometry"/>
        </mxCell>
        <mxCell id="CPRBnCA5laABlLX16hOq-59" value="- objective: int&#xa;- fecha_hora: String&#xa;- medio_dete: String&#xa;- clase_vehi: String&#xa;- tipo_servi: String&#xa;- infraccion: String&#xa;- des_infrac: String&#xa;- localidad: String&#xa;- cordenadas: double[]&#xa;" style="text;strokeColor=none;fillColor=none;align=left;verticalAlign=top;spacingLeft=4;spacingRight=4;overflow=hidden;rotatable=0;points=[[0,0.5],[1,0.5]];portConstraint=eastwest;" parent="CPRBnCA5laABlLX16hOq-58" vertex="1">
          <mxGeometry y="26" width="270" height="134" as="geometry"/>
        </mxCell>
        <mxCell id="CPRBnCA5laABlLX16hOq-60" value="" style="line;strokeWidth=1;fillColor=none;align=left;verticalAlign=middle;spacingTop=-1;spacingLeft=3;spacingRight=3;rotatable=0;labelPosition=right;points=[];portConstraint=eastwest;" parent="CPRBnCA5laABlLX16hOq-58" vertex="1">
          <mxGeometry y="160" width="270" height="8" as="geometry"/>
        </mxCell>
        <mxCell id="CPRBnCA5laABlLX16hOq-61" value="+ Comparendo(int, int, String, String, String,  &#xa;       String, String, String, String, double, double)&#xa;+ getObjective(): int&#xa;+ setObjective(int): void&#xa;+ getFecha_hora(): String&#xa;+ setFecha_hora(String): void&#xa;+ getMedio_dete(): String&#xa;+ setMedio_dete(String): void&#xa;+ getClase_vehi(): String&#xa;+ setClase_vehi(String): void&#xa;+ getTipo_servi(): String&#xa;+ setTipo_servi(String): void&#xa;+ getInfraccion(): String&#xa;+ setInfraccion(String): void&#xa;+ getDes_infrac(): String&#xa;+ setDes_infrac(String): void&#xa;+ getLocalidad(): String&#xa;+ setLocalidad(String): void&#xa;+ getCordenadas(): double[]&#xa;+ setCordenadas(double[]): void&#xa;&#xa;&#xa;" style="text;strokeColor=none;fillColor=none;align=left;verticalAlign=top;spacingLeft=4;spacingRight=4;overflow=hidden;rotatable=0;points=[[0,0.5],[1,0.5]];portConstraint=eastwest;" parent="CPRBnCA5laABlLX16hOq-58" vertex="1">
          <mxGeometry y="168" width="270" height="302" as="geometry"/>
        </mxCell>
        <mxCell id="CPRBnCA5laABlLX16hOq-62" value="«interface»&lt;br&gt;&lt;b&gt;ILinkedList &amp;lt;E&amp;gt;&lt;/b&gt;" style="html=1;" parent="1" vertex="1">
          <mxGeometry x="390.66" y="390" width="110" height="50" as="geometry"/>
        </mxCell>
        <mxCell id="CPRBnCA5laABlLX16hOq-68" value="" style="endArrow=block;endFill=1;html=1;edgeStyle=orthogonalEdgeStyle;align=left;verticalAlign=top;exitX=0.424;exitY=-0.047;exitDx=0;exitDy=0;exitPerimeter=0;" parent="1" edge="1">
          <mxGeometry x="-1" relative="1" as="geometry">
            <mxPoint x="150.66000000000008" y="1013.3000000000002" as="sourcePoint"/>
            <mxPoint x="152.0699999999997" y="948" as="targetPoint"/>
            <Array as="points">
              <mxPoint x="152.5" y="1013"/>
            </Array>
          </mxGeometry>
        </mxCell>
        <mxCell id="CPRBnCA5laABlLX16hOq-69" value="" style="resizable=0;html=1;align=left;verticalAlign=bottom;labelBackgroundColor=#ffffff;fontSize=10;" parent="CPRBnCA5laABlLX16hOq-68" connectable="0" vertex="1">
          <mxGeometry x="-1" relative="1" as="geometry">
            <mxPoint x="-239.25" as="offset"/>
          </mxGeometry>
        </mxCell>
        <mxCell id="CPRBnCA5laABlLX16hOq-71" value="«interface»&lt;br&gt;&lt;b&gt;ILinkedQueue &amp;lt;E&amp;gt;&lt;/b&gt;" style="html=1;" parent="1" vertex="1">
          <mxGeometry x="665.0000000000001" y="390" width="110" height="50" as="geometry"/>
        </mxCell>
        <mxCell id="gOGK81u7pjjwRW-FLy15-1" value="LinkedList &lt;E&gt;" style="swimlane;fontStyle=1;align=center;verticalAlign=top;childLayout=stackLayout;horizontal=1;startSize=26;horizontalStack=0;resizeParent=1;resizeParentMax=0;resizeLast=0;collapsible=1;marginBottom=0;" vertex="1" parent="1">
          <mxGeometry x="390.65999999999997" y="480" width="160" height="86" as="geometry"/>
        </mxCell>
        <mxCell id="gOGK81u7pjjwRW-FLy15-2" value="+ field: type" style="text;strokeColor=none;fillColor=none;align=left;verticalAlign=top;spacingLeft=4;spacingRight=4;overflow=hidden;rotatable=0;points=[[0,0.5],[1,0.5]];portConstraint=eastwest;" vertex="1" parent="gOGK81u7pjjwRW-FLy15-1">
          <mxGeometry y="26" width="160" height="26" as="geometry"/>
        </mxCell>
        <mxCell id="gOGK81u7pjjwRW-FLy15-3" value="" style="line;strokeWidth=1;fillColor=none;align=left;verticalAlign=middle;spacingTop=-1;spacingLeft=3;spacingRight=3;rotatable=0;labelPosition=right;points=[];portConstraint=eastwest;" vertex="1" parent="gOGK81u7pjjwRW-FLy15-1">
          <mxGeometry y="52" width="160" height="8" as="geometry"/>
        </mxCell>
        <mxCell id="gOGK81u7pjjwRW-FLy15-4" value="+ method(type): type" style="text;strokeColor=none;fillColor=none;align=left;verticalAlign=top;spacingLeft=4;spacingRight=4;overflow=hidden;rotatable=0;points=[[0,0.5],[1,0.5]];portConstraint=eastwest;" vertex="1" parent="gOGK81u7pjjwRW-FLy15-1">
          <mxGeometry y="60" width="160" height="26" as="geometry"/>
        </mxCell>
        <mxCell id="gOGK81u7pjjwRW-FLy15-5" value="LinkedQueue &lt;E&gt;" style="swimlane;fontStyle=1;align=center;verticalAlign=top;childLayout=stackLayout;horizontal=1;startSize=26;horizontalStack=0;resizeParent=1;resizeParentMax=0;resizeLast=0;collapsible=1;marginBottom=0;" vertex="1" parent="1">
          <mxGeometry x="615" y="480" width="160" height="86" as="geometry"/>
        </mxCell>
        <mxCell id="gOGK81u7pjjwRW-FLy15-6" value="+ field: type" style="text;strokeColor=none;fillColor=none;align=left;verticalAlign=top;spacingLeft=4;spacingRight=4;overflow=hidden;rotatable=0;points=[[0,0.5],[1,0.5]];portConstraint=eastwest;" vertex="1" parent="gOGK81u7pjjwRW-FLy15-5">
          <mxGeometry y="26" width="160" height="26" as="geometry"/>
        </mxCell>
        <mxCell id="gOGK81u7pjjwRW-FLy15-7" value="" style="line;strokeWidth=1;fillColor=none;align=left;verticalAlign=middle;spacingTop=-1;spacingLeft=3;spacingRight=3;rotatable=0;labelPosition=right;points=[];portConstraint=eastwest;" vertex="1" parent="gOGK81u7pjjwRW-FLy15-5">
          <mxGeometry y="52" width="160" height="8" as="geometry"/>
        </mxCell>
        <mxCell id="gOGK81u7pjjwRW-FLy15-8" value="+ method(type): type" style="text;strokeColor=none;fillColor=none;align=left;verticalAlign=top;spacingLeft=4;spacingRight=4;overflow=hidden;rotatable=0;points=[[0,0.5],[1,0.5]];portConstraint=eastwest;" vertex="1" parent="gOGK81u7pjjwRW-FLy15-5">
          <mxGeometry y="60" width="160" height="26" as="geometry"/>
        </mxCell>
        <mxCell id="gOGK81u7pjjwRW-FLy15-10" value="Node &lt;E&gt;" style="swimlane;fontStyle=1;align=center;verticalAlign=top;childLayout=stackLayout;horizontal=1;startSize=26;horizontalStack=0;resizeParent=1;resizeParentMax=0;resizeLast=0;collapsible=1;marginBottom=0;" vertex="1" parent="1">
          <mxGeometry x="510.00000000000006" y="250" width="160" height="150" as="geometry"/>
        </mxCell>
        <mxCell id="gOGK81u7pjjwRW-FLy15-11" value="- item: E" style="text;strokeColor=none;fillColor=none;align=left;verticalAlign=top;spacingLeft=4;spacingRight=4;overflow=hidden;rotatable=0;points=[[0,0.5],[1,0.5]];portConstraint=eastwest;" vertex="1" parent="gOGK81u7pjjwRW-FLy15-10">
          <mxGeometry y="26" width="160" height="26" as="geometry"/>
        </mxCell>
        <mxCell id="gOGK81u7pjjwRW-FLy15-12" value="" style="line;strokeWidth=1;fillColor=none;align=left;verticalAlign=middle;spacingTop=-1;spacingLeft=3;spacingRight=3;rotatable=0;labelPosition=right;points=[];portConstraint=eastwest;" vertex="1" parent="gOGK81u7pjjwRW-FLy15-10">
          <mxGeometry y="52" width="160" height="8" as="geometry"/>
        </mxCell>
        <mxCell id="gOGK81u7pjjwRW-FLy15-13" value="+ Node(E)&#xa;+ getNext(): Node &lt;E&gt;&#xa;+ setNext(Node &lt;E&gt;): void&#xa;+ getItem(): E&#xa;+ setItem(E): void" style="text;strokeColor=none;fillColor=none;align=left;verticalAlign=top;spacingLeft=4;spacingRight=4;overflow=hidden;rotatable=0;points=[[0,0.5],[1,0.5]];portConstraint=eastwest;" vertex="1" parent="gOGK81u7pjjwRW-FLy15-10">
          <mxGeometry y="60" width="160" height="90" as="geometry"/>
        </mxCell>
        <mxCell id="gOGK81u7pjjwRW-FLy15-14" value="LisIterator1" style="swimlane;fontStyle=1;align=center;verticalAlign=top;childLayout=stackLayout;horizontal=1;startSize=26;horizontalStack=0;resizeParent=1;resizeParentMax=0;resizeLast=0;collapsible=1;marginBottom=0;" vertex="1" parent="1">
          <mxGeometry x="390.66" y="58" width="170" height="110" as="geometry"/>
        </mxCell>
        <mxCell id="gOGK81u7pjjwRW-FLy15-16" value="" style="line;strokeWidth=1;fillColor=none;align=left;verticalAlign=middle;spacingTop=-1;spacingLeft=3;spacingRight=3;rotatable=0;labelPosition=right;points=[];portConstraint=eastwest;" vertex="1" parent="gOGK81u7pjjwRW-FLy15-14">
          <mxGeometry y="26" width="170" height="8" as="geometry"/>
        </mxCell>
        <mxCell id="gOGK81u7pjjwRW-FLy15-17" value="+ LisIterator1(LinkedList &lt;E&gt;)&#xa;+ hasNext(): boolean&#xa;+ next(): E&#xa;+ remove(): void" style="text;strokeColor=none;fillColor=none;align=left;verticalAlign=top;spacingLeft=4;spacingRight=4;overflow=hidden;rotatable=0;points=[[0,0.5],[1,0.5]];portConstraint=eastwest;" vertex="1" parent="gOGK81u7pjjwRW-FLy15-14">
          <mxGeometry y="34" width="170" height="76" as="geometry"/>
        </mxCell>
        <mxCell id="gOGK81u7pjjwRW-FLy15-18" value="LisIterator2" style="swimlane;fontStyle=1;align=center;verticalAlign=top;childLayout=stackLayout;horizontal=1;startSize=26;horizontalStack=0;resizeParent=1;resizeParentMax=0;resizeLast=0;collapsible=1;marginBottom=0;" vertex="1" parent="1">
          <mxGeometry x="615" y="58" width="180" height="110" as="geometry"/>
        </mxCell>
        <mxCell id="gOGK81u7pjjwRW-FLy15-20" value="" style="line;strokeWidth=1;fillColor=none;align=left;verticalAlign=middle;spacingTop=-1;spacingLeft=3;spacingRight=3;rotatable=0;labelPosition=right;points=[];portConstraint=eastwest;" vertex="1" parent="gOGK81u7pjjwRW-FLy15-18">
          <mxGeometry y="26" width="180" height="8" as="geometry"/>
        </mxCell>
        <mxCell id="gOGK81u7pjjwRW-FLy15-21" value="+ LisIterator2(LinkedQueue &lt;E&gt;)&#xa;+ hasNext(): boolean&#xa;+ next(): E&#xa;+ remove(): void" style="text;strokeColor=none;fillColor=none;align=left;verticalAlign=top;spacingLeft=4;spacingRight=4;overflow=hidden;rotatable=0;points=[[0,0.5],[1,0.5]];portConstraint=eastwest;" vertex="1" parent="gOGK81u7pjjwRW-FLy15-18">
          <mxGeometry y="34" width="180" height="76" as="geometry"/>
        </mxCell>
        <mxCell id="gOGK81u7pjjwRW-FLy15-23" value="- next" style="edgeStyle=orthogonalEdgeStyle;html=1;align=left;spacingLeft=2;endArrow=block;rounded=0;entryX=1;entryY=0;" edge="1" parent="1">
          <mxGeometry relative="1" as="geometry">
            <mxPoint x="670" y="310" as="sourcePoint"/>
            <Array as="points">
              <mxPoint x="695" y="310"/>
            </Array>
            <mxPoint x="674.9999999999998" y="330" as="targetPoint"/>
          </mxGeometry>
        </mxCell>
      </root>
    </mxGraphModel>
  </diagram>
</mxfile>
